<svg width="15" height="18" viewBox="0 0 15 18" fill="none" xmlns="http://www.w3.org/2000/svg">
<path d="M7.03491 17.5332C7.99765 17.5332 8.78534 16.7455 8.78534 15.7828H5.28448C5.28448 16.247 5.4689 16.6923 5.79717 17.0205C6.12544 17.3488 6.57067 17.5332 7.03491 17.5332ZM12.2862 12.2819V7.90587C12.2862 5.21896 10.8508 2.96966 8.34773 2.37452V1.77937C8.34773 1.05295 7.76134 0.466553 7.03491 0.466553C6.30848 0.466553 5.72209 1.05295 5.72209 1.77937V2.37452C3.21023 2.96966 1.78363 5.21021 1.78363 7.90587V12.2819L0.0332031 14.0324V14.9076H14.0366V14.0324L12.2862 12.2819Z" fill="#2EC4B6"/>
</svg>
