<svg width="16" height="17" viewBox="0 0 16 17" fill="none" xmlns="http://www.w3.org/2000/svg">
<path d="M3.5 0.45752C3.63261 0.45752 3.75979 0.510198 3.85355 0.603966C3.94732 0.697734 4 0.824911 4 0.95752V1.45752H12V0.95752C12 0.824911 12.0527 0.697734 12.1464 0.603966C12.2402 0.510198 12.3674 0.45752 12.5 0.45752C12.6326 0.45752 12.7598 0.510198 12.8536 0.603966C12.9473 0.697734 13 0.824911 13 0.95752V1.45752H14C14.5304 1.45752 15.0391 1.66823 15.4142 2.04331C15.7893 2.41838 16 2.92709 16 3.45752V14.4575C16 14.988 15.7893 15.4967 15.4142 15.8717C15.0391 16.2468 14.5304 16.4575 14 16.4575H2C1.46957 16.4575 0.960859 16.2468 0.585786 15.8717C0.210714 15.4967 0 14.988 0 14.4575V3.45752C0 2.92709 0.210714 2.41838 0.585786 2.04331C0.960859 1.66823 1.46957 1.45752 2 1.45752H3V0.95752C3 0.824911 3.05268 0.697734 3.14645 0.603966C3.24021 0.510198 3.36739 0.45752 3.5 0.45752V0.45752ZM1 4.45752V14.4575C1 14.7227 1.10536 14.9771 1.29289 15.1646C1.48043 15.3522 1.73478 15.4575 2 15.4575H14C14.2652 15.4575 14.5196 15.3522 14.7071 15.1646C14.8946 14.9771 15 14.7227 15 14.4575V4.45752H1Z" fill="#2EC4B6"/>
</svg>
