<svg width="28" height="24" viewBox="0 0 28 24" fill="none" xmlns="http://www.w3.org/2000/svg">
<path d="M7.97271 4.61644V5.61644C8.32838 5.61644 8.65728 5.42753 8.83649 5.12031L7.97271 4.61644ZM10.0823 1V0C9.72663 0 9.39773 0.188911 9.21852 0.496129L10.0823 1ZM17.9179 1L18.7817 0.496129C18.6025 0.188911 18.2736 0 17.9179 0V1ZM20.0275 4.61644L19.1637 5.12031C19.3429 5.42753 19.6718 5.61644 20.0275 5.61644V4.61644ZM2.94531 19.9863V7.63014H0.945312V19.9863H2.94531ZM4.95901 5.61644H7.97271V3.61644H4.95901V5.61644ZM8.83649 5.12031L10.9461 1.50387L9.21852 0.496129L7.10893 4.11257L8.83649 5.12031ZM10.0823 2H17.9179V0H10.0823V2ZM17.0541 1.50387L19.1637 5.12031L20.8913 4.11257L18.7817 0.496129L17.0541 1.50387ZM20.0275 5.61644H23.0412V3.61644H20.0275V5.61644ZM25.0549 7.63014V19.9863H27.0549V7.63014H25.0549ZM25.0549 19.9863C25.0549 21.0984 24.1533 22 23.0412 22V24C25.2579 24 27.0549 22.203 27.0549 19.9863H25.0549ZM23.0412 5.61644C24.1533 5.61644 25.0549 6.518 25.0549 7.63014H27.0549C27.0549 5.41343 25.2579 3.61644 23.0412 3.61644V5.61644ZM2.94531 7.63014C2.94531 6.518 3.84688 5.61644 4.95901 5.61644V3.61644C2.74231 3.61644 0.945312 5.41343 0.945312 7.63014H2.94531ZM4.95901 22C3.84688 22 2.94531 21.0984 2.94531 19.9863H0.945312C0.945312 22.203 2.74231 24 4.95901 24V22ZM17.5207 13.0548C17.5207 14.9991 15.9445 16.5753 14.0001 16.5753V18.5753C17.049 18.5753 19.5207 16.1037 19.5207 13.0548H17.5207ZM14.0001 16.5753C12.0558 16.5753 10.4796 14.9991 10.4796 13.0548H8.47956C8.47956 16.1037 10.9512 18.5753 14.0001 18.5753V16.5753ZM10.4796 13.0548C10.4796 11.1104 12.0558 9.53425 14.0001 9.53425V7.53425C10.9512 7.53425 8.47956 10.0059 8.47956 13.0548H10.4796ZM14.0001 9.53425C15.9445 9.53425 17.5207 11.1104 17.5207 13.0548H19.5207C19.5207 10.0059 17.049 7.53425 14.0001 7.53425V9.53425ZM23.0412 22H4.95901V24H23.0412V22Z" fill="#2EC4B6"/>
</svg>
