<svg width="20" height="24" viewBox="0 0 20 24" fill="none" xmlns="http://www.w3.org/2000/svg">
<path d="M13.4379 1V5.125C13.4379 5.88439 14.0535 6.5 14.8129 6.5H18.9379M5.87543 6.5H8.62543M5.87543 10.625H14.1254M5.87543 14.75H14.1254M16.8754 3.0625C16.2635 2.51495 15.6284 1.86554 15.2276 1.44376C14.9608 1.16309 14.5922 1 14.205 1H3.81261C2.29383 1 1.06262 2.23121 1.06261 3.74999L1.0625 20.2499C1.06249 21.7687 2.2937 22.9999 3.81249 23L16.1875 23C17.7063 23 18.9375 21.7688 18.9376 20.2501L18.9379 5.67252C18.9379 5.32093 18.8038 4.98296 18.5598 4.72984C18.1086 4.26178 17.3551 3.49164 16.8754 3.0625Z" stroke="#2EC4B6" stroke-width="2" stroke-linecap="round" stroke-linejoin="round"/>
</svg>
