<svg width="22" height="22" viewBox="0 0 22 22" fill="none" xmlns="http://www.w3.org/2000/svg">
<path d="M10.9998 18.4307L5.66777 21.794C5.43222 21.951 5.18597 22.0182 4.929 21.9958C4.67204 21.9734 4.4472 21.8837 4.25447 21.7267C4.06175 21.5698 3.91186 21.3738 3.80479 21.1388C3.69772 20.903 3.67631 20.6393 3.74055 20.3478L5.15385 13.9912L0.432147 9.71986C0.218011 9.51806 0.0843906 9.28801 0.0312849 9.02971C-0.0226774 8.77231 -0.00683139 8.52029 0.078823 8.27365C0.164477 8.02701 0.292959 7.82521 0.464268 7.66826C0.635576 7.51131 0.871126 7.41041 1.17092 7.36557L7.40227 6.79381L9.8113 0.807186C9.91837 0.538124 10.0845 0.336327 10.3098 0.201796C10.5342 0.0672656 10.7642 0 10.9998 0C11.2353 0 11.4657 0.0672656 11.691 0.201796C11.9154 0.336327 12.0811 0.538124 12.1882 0.807186L14.5972 6.79381L20.8286 7.36557C21.1284 7.41041 21.3639 7.51131 21.5352 7.66826C21.7066 7.82521 21.835 8.02701 21.9207 8.27365C22.0063 8.52029 22.0226 8.77231 21.9695 9.02971C21.9156 9.28801 21.7815 9.51806 21.5674 9.71986L16.8457 13.9912L18.259 20.3478C18.3232 20.6393 18.3018 20.903 18.1947 21.1388C18.0877 21.3738 17.9378 21.5698 17.745 21.7267C17.5523 21.8837 17.3275 21.9734 17.0705 21.9958C16.8135 22.0182 16.5673 21.951 16.3317 21.794L10.9998 18.4307Z" fill="#2EC4B6"/>
</svg>
