<svg width="22" height="14" viewBox="0 0 22 14" fill="none" xmlns="http://www.w3.org/2000/svg">
<path d="M9.83333 14C9.50278 14 9.22589 13.888 9.00267 13.664C8.77867 13.4408 8.66667 13.1639 8.66667 12.8333C8.66667 12.5028 8.77867 12.2259 9.00267 12.0027C9.22589 11.7787 9.50278 11.6667 9.83333 11.6667H12.1667C12.4972 11.6667 12.7745 11.7787 12.9985 12.0027C13.2217 12.2259 13.3333 12.5028 13.3333 12.8333C13.3333 13.1639 13.2217 13.4408 12.9985 13.664C12.7745 13.888 12.4972 14 12.1667 14H9.83333ZM1.66667 2.33333C1.33611 2.33333 1.05922 2.22172 0.836 1.9985C0.612 1.7745 0.5 1.49722 0.5 1.16667C0.5 0.836111 0.612 0.558834 0.836 0.334834C1.05922 0.111611 1.33611 0 1.66667 0H20.3333C20.6639 0 20.9408 0.111611 21.164 0.334834C21.388 0.558834 21.5 0.836111 21.5 1.16667C21.5 1.49722 21.388 1.7745 21.164 1.9985C20.9408 2.22172 20.6639 2.33333 20.3333 2.33333H1.66667ZM5.16667 8.16667C4.83611 8.16667 4.55883 8.05467 4.33483 7.83067C4.11161 7.60744 4 7.33056 4 7C4 6.66944 4.11161 6.39217 4.33483 6.16817C4.55883 5.94494 4.83611 5.83333 5.16667 5.83333H16.8333C17.1639 5.83333 17.4408 5.94494 17.664 6.16817C17.888 6.39217 18 6.66944 18 7C18 7.33056 17.888 7.60744 17.664 7.83067C17.4408 8.05467 17.1639 8.16667 16.8333 8.16667H5.16667Z" fill="white"/>
</svg>
