<svg width="24" height="24" viewBox="0 0 24 24" fill="none" xmlns="http://www.w3.org/2000/svg">
<path d="M15.5629 23V2.97122C15.5629 1.88255 14.6803 1 13.5917 1H10.2013C9.1126 1 8.23005 1.88255 8.23005 2.97122V23M15.5629 23L15.561 11.2699C15.5609 10.1812 16.4435 9.29841 17.5323 9.29841H20.9223C22.011 9.29841 22.8936 10.181 22.8936 11.2696V21.0288C22.8936 22.1175 22.011 23 20.9223 23H15.5629ZM15.5629 23H8.23005M8.23005 23V17.7089C8.23005 16.6202 7.34751 15.7377 6.25883 15.7377H3.07781C1.98913 15.7377 1.10658 16.6202 1.10658 17.7089V21.0288C1.10658 22.1175 1.98913 23 3.07781 23H8.23005Z" stroke="#2EC4B6" stroke-width="2" stroke-linecap="round" stroke-linejoin="round"/>
</svg>
