<svg width="36" height="36" viewBox="0 0 36 36" fill="none" xmlns="http://www.w3.org/2000/svg">
<path d="M19.158 0.646252C18.9471 0.465839 18.6787 0.366699 18.4011 0.366699C18.1236 0.366699 17.8551 0.465839 17.6442 0.646252L0.933838 14.9694V31.8079C0.933838 32.7344 1.3019 33.623 1.95705 34.2781C2.6122 34.9333 3.50077 35.3014 4.4273 35.3014H13.7432C14.052 35.3014 14.3482 35.1787 14.5666 34.9603C14.785 34.7419 14.9077 34.4457 14.9077 34.1369V27.15C14.9077 26.2234 15.2757 25.3349 15.9309 24.6797C16.586 24.0246 17.4746 23.6565 18.4011 23.6565C19.3277 23.6565 20.2162 24.0246 20.8714 24.6797C21.5265 25.3349 21.8946 26.2234 21.8946 27.15V34.1369C21.8946 34.4457 22.0173 34.7419 22.2357 34.9603C22.454 35.1787 22.7502 35.3014 23.0591 35.3014H32.375C33.3015 35.3014 34.1901 34.9333 34.8452 34.2781C35.5004 33.623 35.8684 32.7344 35.8684 31.8079V14.9694L19.158 0.646252Z" fill="#2EC4B6"/>
</svg>
