<svg width="224" height="33" viewBox="0 0 224 33" fill="none" xmlns="http://www.w3.org/2000/svg">
<path d="M7.16711 1.66L4.40711 6.976V10H3.03911V6.976L0.267112 1.66H1.79111L3.72311 5.752L5.65511 1.66H7.16711ZM11.3607 10.108C10.7367 10.108 10.1727 9.968 9.66874 9.688C9.16474 9.4 8.76874 9 8.48074 8.488C8.19274 7.968 8.04874 7.368 8.04874 6.688C8.04874 6.016 8.19674 5.42 8.49274 4.9C8.78874 4.38 9.19274 3.98 9.70474 3.7C10.2167 3.42 10.7887 3.28 11.4207 3.28C12.0527 3.28 12.6247 3.42 13.1367 3.7C13.6487 3.98 14.0527 4.38 14.3487 4.9C14.6447 5.42 14.7927 6.016 14.7927 6.688C14.7927 7.36 14.6407 7.956 14.3367 8.476C14.0327 8.996 13.6167 9.4 13.0887 9.688C12.5687 9.968 11.9927 10.108 11.3607 10.108ZM11.3607 8.92C11.7127 8.92 12.0407 8.836 12.3447 8.668C12.6567 8.5 12.9087 8.248 13.1007 7.912C13.2927 7.576 13.3887 7.168 13.3887 6.688C13.3887 6.208 13.2967 5.804 13.1127 5.476C12.9287 5.14 12.6847 4.888 12.3807 4.72C12.0767 4.552 11.7487 4.468 11.3967 4.468C11.0447 4.468 10.7167 4.552 10.4127 4.72C10.1167 4.888 9.88074 5.14 9.70474 5.476C9.52874 5.804 9.44074 6.208 9.44074 6.688C9.44074 7.4 9.62074 7.952 9.98074 8.344C10.3487 8.728 10.8087 8.92 11.3607 8.92ZM22.3731 3.388V10H21.0051V9.22C20.7891 9.492 20.5051 9.708 20.1531 9.868C19.8091 10.02 19.4411 10.096 19.0491 10.096C18.5291 10.096 18.0611 9.988 17.6451 9.772C17.2371 9.556 16.9131 9.236 16.6731 8.812C16.4411 8.388 16.3251 7.876 16.3251 7.276V3.388H17.6811V7.072C17.6811 7.664 17.8291 8.12 18.1251 8.44C18.4211 8.752 18.8251 8.908 19.3371 8.908C19.8491 8.908 20.2531 8.752 20.5491 8.44C20.8531 8.12 21.0051 7.664 21.0051 7.072V3.388H22.3731ZM31.1952 3.28C31.6992 3.28 32.1472 3.388 32.5392 3.604C32.9392 3.82 33.2512 4.14 33.4752 4.564C33.7072 4.988 33.8232 5.5 33.8232 6.1V10H32.4672V6.304C32.4672 5.712 32.3192 5.26 32.0232 4.948C31.7272 4.628 31.3232 4.468 30.8112 4.468C30.2992 4.468 29.8912 4.628 29.5872 4.948C29.2912 5.26 29.1432 5.712 29.1432 6.304V10H27.7752V1.12H29.1432V4.156C29.3752 3.876 29.6672 3.66 30.0192 3.508C30.3792 3.356 30.7712 3.28 31.1952 3.28ZM35.3522 6.664C35.3522 6 35.4882 5.412 35.7602 4.9C36.0402 4.388 36.4162 3.992 36.8882 3.712C37.3682 3.424 37.8962 3.28 38.4722 3.28C38.9922 3.28 39.4442 3.384 39.8282 3.592C40.2202 3.792 40.5322 4.044 40.7642 4.348V3.388H42.1442V10H40.7642V9.016C40.5322 9.328 40.2162 9.588 39.8162 9.796C39.4162 10.004 38.9602 10.108 38.4482 10.108C37.8802 10.108 37.3602 9.964 36.8882 9.676C36.4162 9.38 36.0402 8.972 35.7602 8.452C35.4882 7.924 35.3522 7.328 35.3522 6.664ZM40.7642 6.688C40.7642 6.232 40.6682 5.836 40.4762 5.5C40.2922 5.164 40.0482 4.908 39.7442 4.732C39.4402 4.556 39.1122 4.468 38.7602 4.468C38.4082 4.468 38.0802 4.556 37.7762 4.732C37.4722 4.9 37.2242 5.152 37.0322 5.488C36.8482 5.816 36.7562 6.208 36.7562 6.664C36.7562 7.12 36.8482 7.52 37.0322 7.864C37.2242 8.208 37.4722 8.472 37.7762 8.656C38.0882 8.832 38.4162 8.92 38.7602 8.92C39.1122 8.92 39.4402 8.832 39.7442 8.656C40.0482 8.48 40.2922 8.224 40.4762 7.888C40.6682 7.544 40.7642 7.144 40.7642 6.688ZM46.737 8.776L48.609 3.388H50.061L47.541 10H45.909L43.401 3.388H44.865L46.737 8.776ZM57.3951 6.532C57.3951 6.78 57.3791 7.004 57.3471 7.204H52.2951C52.3351 7.732 52.5311 8.156 52.8831 8.476C53.2351 8.796 53.6671 8.956 54.1791 8.956C54.9151 8.956 55.4351 8.648 55.7391 8.032H57.2151C57.0151 8.64 56.6511 9.14 56.1231 9.532C55.6031 9.916 54.9551 10.108 54.1791 10.108C53.5471 10.108 52.9791 9.968 52.4751 9.688C51.9791 9.4 51.5871 9 51.2991 8.488C51.0191 7.968 50.8791 7.368 50.8791 6.688C50.8791 6.008 51.0151 5.412 51.2871 4.9C51.5671 4.38 51.9551 3.98 52.4511 3.7C52.9551 3.42 53.5311 3.28 54.1791 3.28C54.8031 3.28 55.3591 3.416 55.8471 3.688C56.3351 3.96 56.7151 4.344 56.9871 4.84C57.2591 5.328 57.3951 5.892 57.3951 6.532ZM55.9671 6.1C55.9591 5.596 55.7791 5.192 55.4271 4.888C55.0751 4.584 54.6391 4.432 54.1191 4.432C53.6471 4.432 53.2431 4.584 52.9071 4.888C52.5711 5.184 52.3711 5.588 52.3071 6.1H55.9671ZM65.6745 3.28C66.1945 3.28 66.6585 3.388 67.0665 3.604C67.4825 3.82 67.8065 4.14 68.0385 4.564C68.2705 4.988 68.3865 5.5 68.3865 6.1V10H67.0305V6.304C67.0305 5.712 66.8825 5.26 66.5865 4.948C66.2905 4.628 65.8865 4.468 65.3745 4.468C64.8625 4.468 64.4545 4.628 64.1505 4.948C63.8545 5.26 63.7065 5.712 63.7065 6.304V10H62.3385V3.388H63.7065V4.144C63.9305 3.872 64.2145 3.66 64.5585 3.508C64.9105 3.356 65.2825 3.28 65.6745 3.28ZM73.2395 10.108C72.6155 10.108 72.0515 9.968 71.5475 9.688C71.0435 9.4 70.6475 9 70.3595 8.488C70.0715 7.968 69.9275 7.368 69.9275 6.688C69.9275 6.016 70.0755 5.42 70.3715 4.9C70.6675 4.38 71.0715 3.98 71.5835 3.7C72.0955 3.42 72.6675 3.28 73.2995 3.28C73.9315 3.28 74.5035 3.42 75.0155 3.7C75.5275 3.98 75.9315 4.38 76.2275 4.9C76.5235 5.42 76.6715 6.016 76.6715 6.688C76.6715 7.36 76.5195 7.956 76.2155 8.476C75.9115 8.996 75.4955 9.4 74.9675 9.688C74.4475 9.968 73.8715 10.108 73.2395 10.108ZM73.2395 8.92C73.5915 8.92 73.9195 8.836 74.2235 8.668C74.5355 8.5 74.7875 8.248 74.9795 7.912C75.1715 7.576 75.2675 7.168 75.2675 6.688C75.2675 6.208 75.1755 5.804 74.9915 5.476C74.8075 5.14 74.5635 4.888 74.2595 4.72C73.9555 4.552 73.6275 4.468 73.2755 4.468C72.9235 4.468 72.5955 4.552 72.2915 4.72C71.9955 4.888 71.7595 5.14 71.5835 5.476C71.4075 5.804 71.3195 6.208 71.3195 6.688C71.3195 7.4 71.4995 7.952 71.8595 8.344C72.2275 8.728 72.6875 8.92 73.2395 8.92ZM84.957 3.28C85.477 3.28 85.941 3.388 86.349 3.604C86.765 3.82 87.089 4.14 87.321 4.564C87.553 4.988 87.669 5.5 87.669 6.1V10H86.313V6.304C86.313 5.712 86.165 5.26 85.869 4.948C85.573 4.628 85.169 4.468 84.657 4.468C84.145 4.468 83.737 4.628 83.433 4.948C83.137 5.26 82.989 5.712 82.989 6.304V10H81.621V3.388H82.989V4.144C83.213 3.872 83.497 3.66 83.841 3.508C84.193 3.356 84.565 3.28 84.957 3.28ZM92.522 10.108C91.898 10.108 91.334 9.968 90.83 9.688C90.326 9.4 89.93 9 89.642 8.488C89.354 7.968 89.21 7.368 89.21 6.688C89.21 6.016 89.358 5.42 89.654 4.9C89.95 4.38 90.354 3.98 90.866 3.7C91.378 3.42 91.95 3.28 92.582 3.28C93.214 3.28 93.786 3.42 94.298 3.7C94.81 3.98 95.214 4.38 95.51 4.9C95.806 5.42 95.954 6.016 95.954 6.688C95.954 7.36 95.802 7.956 95.498 8.476C95.194 8.996 94.778 9.4 94.25 9.688C93.73 9.968 93.154 10.108 92.522 10.108ZM92.522 8.92C92.874 8.92 93.202 8.836 93.506 8.668C93.818 8.5 94.07 8.248 94.262 7.912C94.454 7.576 94.55 7.168 94.55 6.688C94.55 6.208 94.458 5.804 94.274 5.476C94.09 5.14 93.846 4.888 93.542 4.72C93.238 4.552 92.91 4.468 92.558 4.468C92.206 4.468 91.878 4.552 91.574 4.72C91.278 4.888 91.042 5.14 90.866 5.476C90.69 5.804 90.602 6.208 90.602 6.688C90.602 7.4 90.782 7.952 91.142 8.344C91.51 8.728 91.97 8.92 92.522 8.92ZM99.1423 4.504V8.164C99.1423 8.412 99.1983 8.592 99.3103 8.704C99.4303 8.808 99.6303 8.86 99.9103 8.86H100.75V10H99.6703C99.0543 10 98.5823 9.856 98.2543 9.568C97.9263 9.28 97.7623 8.812 97.7623 8.164V4.504H96.9823V3.388H97.7623V1.744H99.1423V3.388H100.75V4.504H99.1423ZM102.947 2.512C102.699 2.512 102.491 2.428 102.323 2.26C102.155 2.092 102.071 1.884 102.071 1.636C102.071 1.388 102.155 1.18 102.323 1.012C102.491 0.844 102.699 0.76 102.947 0.76C103.187 0.76 103.391 0.844 103.559 1.012C103.727 1.18 103.811 1.388 103.811 1.636C103.811 1.884 103.727 2.092 103.559 2.26C103.391 2.428 103.187 2.512 102.947 2.512ZM103.619 3.388V10H102.251V3.388H103.619ZM108.427 4.504H107.203V10H105.823V4.504H105.043V3.388H105.823V2.92C105.823 2.16 106.023 1.608 106.423 1.264C106.831 0.912 107.467 0.736 108.331 0.736V1.876C107.915 1.876 107.623 1.956 107.455 2.116C107.287 2.268 107.203 2.536 107.203 2.92V3.388H108.427V4.504ZM110.576 2.512C110.328 2.512 110.12 2.428 109.952 2.26C109.784 2.092 109.7 1.884 109.7 1.636C109.7 1.388 109.784 1.18 109.952 1.012C110.12 0.844 110.328 0.76 110.576 0.76C110.816 0.76 111.02 0.844 111.188 1.012C111.356 1.18 111.44 1.388 111.44 1.636C111.44 1.884 111.356 2.092 111.188 2.26C111.02 2.428 110.816 2.512 110.576 2.512ZM111.248 3.388V10H109.88V3.388H111.248ZM112.828 6.688C112.828 6.008 112.964 5.412 113.236 4.9C113.516 4.38 113.9 3.98 114.388 3.7C114.876 3.42 115.436 3.28 116.068 3.28C116.868 3.28 117.528 3.472 118.048 3.856C118.576 4.232 118.932 4.772 119.116 5.476H117.64C117.52 5.148 117.328 4.892 117.064 4.708C116.8 4.524 116.468 4.432 116.068 4.432C115.508 4.432 115.06 4.632 114.724 5.032C114.396 5.424 114.232 5.976 114.232 6.688C114.232 7.4 114.396 7.956 114.724 8.356C115.06 8.756 115.508 8.956 116.068 8.956C116.86 8.956 117.384 8.608 117.64 7.912H119.116C118.924 8.584 118.564 9.12 118.036 9.52C117.508 9.912 116.852 10.108 116.068 10.108C115.436 10.108 114.876 9.968 114.388 9.688C113.9 9.4 113.516 9 113.236 8.488C112.964 7.968 112.828 7.368 112.828 6.688ZM120.263 6.664C120.263 6 120.399 5.412 120.671 4.9C120.951 4.388 121.327 3.992 121.799 3.712C122.279 3.424 122.807 3.28 123.383 3.28C123.903 3.28 124.355 3.384 124.739 3.592C125.131 3.792 125.443 4.044 125.675 4.348V3.388H127.055V10H125.675V9.016C125.443 9.328 125.127 9.588 124.727 9.796C124.327 10.004 123.871 10.108 123.359 10.108C122.791 10.108 122.271 9.964 121.799 9.676C121.327 9.38 120.951 8.972 120.671 8.452C120.399 7.924 120.263 7.328 120.263 6.664ZM125.675 6.688C125.675 6.232 125.579 5.836 125.387 5.5C125.203 5.164 124.959 4.908 124.655 4.732C124.351 4.556 124.023 4.468 123.671 4.468C123.319 4.468 122.991 4.556 122.687 4.732C122.383 4.9 122.135 5.152 121.943 5.488C121.759 5.816 121.667 6.208 121.667 6.664C121.667 7.12 121.759 7.52 121.943 7.864C122.135 8.208 122.383 8.472 122.687 8.656C122.999 8.832 123.327 8.92 123.671 8.92C124.023 8.92 124.351 8.832 124.655 8.656C124.959 8.48 125.203 8.224 125.387 7.888C125.579 7.544 125.675 7.144 125.675 6.688ZM130.688 4.504V8.164C130.688 8.412 130.744 8.592 130.856 8.704C130.976 8.808 131.176 8.86 131.456 8.86H132.296V10H131.216C130.6 10 130.128 9.856 129.8 9.568C129.472 9.28 129.308 8.812 129.308 8.164V4.504H128.528V3.388H129.308V1.744H130.688V3.388H132.296V4.504H130.688ZM134.493 2.512C134.245 2.512 134.037 2.428 133.869 2.26C133.701 2.092 133.617 1.884 133.617 1.636C133.617 1.388 133.701 1.18 133.869 1.012C134.037 0.844 134.245 0.76 134.493 0.76C134.733 0.76 134.937 0.844 135.105 1.012C135.273 1.18 135.357 1.388 135.357 1.636C135.357 1.884 135.273 2.092 135.105 2.26C134.937 2.428 134.733 2.512 134.493 2.512ZM135.165 3.388V10H133.797V3.388H135.165ZM140.069 10.108C139.445 10.108 138.881 9.968 138.377 9.688C137.873 9.4 137.477 9 137.189 8.488C136.901 7.968 136.757 7.368 136.757 6.688C136.757 6.016 136.905 5.42 137.201 4.9C137.497 4.38 137.901 3.98 138.413 3.7C138.925 3.42 139.497 3.28 140.129 3.28C140.761 3.28 141.333 3.42 141.845 3.7C142.357 3.98 142.761 4.38 143.057 4.9C143.353 5.42 143.501 6.016 143.501 6.688C143.501 7.36 143.349 7.956 143.045 8.476C142.741 8.996 142.325 9.4 141.797 9.688C141.277 9.968 140.701 10.108 140.069 10.108ZM140.069 8.92C140.421 8.92 140.749 8.836 141.053 8.668C141.365 8.5 141.617 8.248 141.809 7.912C142.001 7.576 142.097 7.168 142.097 6.688C142.097 6.208 142.005 5.804 141.821 5.476C141.637 5.14 141.393 4.888 141.089 4.72C140.785 4.552 140.457 4.468 140.105 4.468C139.753 4.468 139.425 4.552 139.121 4.72C138.825 4.888 138.589 5.14 138.413 5.476C138.237 5.804 138.149 6.208 138.149 6.688C138.149 7.4 138.329 7.952 138.689 8.344C139.057 8.728 139.517 8.92 140.069 8.92ZM148.429 3.28C148.949 3.28 149.413 3.388 149.821 3.604C150.237 3.82 150.561 4.14 150.793 4.564C151.025 4.988 151.141 5.5 151.141 6.1V10H149.785V6.304C149.785 5.712 149.637 5.26 149.341 4.948C149.045 4.628 148.641 4.468 148.129 4.468C147.617 4.468 147.209 4.628 146.905 4.948C146.609 5.26 146.461 5.712 146.461 6.304V10H145.093V3.388H146.461V4.144C146.685 3.872 146.969 3.66 147.313 3.508C147.665 3.356 148.037 3.28 148.429 3.28ZM155.526 10.108C155.006 10.108 154.538 10.016 154.122 9.832C153.714 9.64 153.39 9.384 153.15 9.064C152.91 8.736 152.782 8.372 152.766 7.972H154.182C154.206 8.252 154.338 8.488 154.578 8.68C154.826 8.864 155.134 8.956 155.502 8.956C155.886 8.956 156.182 8.884 156.39 8.74C156.606 8.588 156.714 8.396 156.714 8.164C156.714 7.916 156.594 7.732 156.354 7.612C156.122 7.492 155.75 7.36 155.238 7.216C154.742 7.08 154.338 6.948 154.026 6.82C153.714 6.692 153.442 6.496 153.21 6.232C152.986 5.968 152.874 5.62 152.874 5.188C152.874 4.836 152.978 4.516 153.186 4.228C153.394 3.932 153.69 3.7 154.074 3.532C154.466 3.364 154.914 3.28 155.418 3.28C156.17 3.28 156.774 3.472 157.23 3.856C157.694 4.232 157.942 4.748 157.974 5.404H156.606C156.582 5.108 156.462 4.872 156.246 4.696C156.03 4.52 155.738 4.432 155.37 4.432C155.01 4.432 154.734 4.5 154.542 4.636C154.35 4.772 154.254 4.952 154.254 5.176C154.254 5.352 154.318 5.5 154.446 5.62C154.574 5.74 154.73 5.836 154.914 5.908C155.098 5.972 155.37 6.056 155.73 6.16C156.21 6.288 156.602 6.42 156.906 6.556C157.218 6.684 157.486 6.876 157.71 7.132C157.934 7.388 158.05 7.728 158.058 8.152C158.058 8.528 157.954 8.864 157.746 9.16C157.538 9.456 157.242 9.688 156.858 9.856C156.482 10.024 156.038 10.108 155.526 10.108ZM164.501 4.348C164.701 4.012 164.965 3.752 165.293 3.568C165.629 3.376 166.025 3.28 166.481 3.28V4.696H166.133C165.597 4.696 165.189 4.832 164.909 5.104C164.637 5.376 164.501 5.848 164.501 6.52V10H163.133V3.388H164.501V4.348ZM168.675 2.512C168.427 2.512 168.219 2.428 168.051 2.26C167.883 2.092 167.799 1.884 167.799 1.636C167.799 1.388 167.883 1.18 168.051 1.012C168.219 0.844 168.427 0.76 168.675 0.76C168.915 0.76 169.119 0.844 169.287 1.012C169.455 1.18 169.539 1.388 169.539 1.636C169.539 1.884 169.455 2.092 169.287 2.26C169.119 2.428 168.915 2.512 168.675 2.512ZM169.347 3.388V10H167.979V3.388H169.347ZM174.047 3.28C174.559 3.28 175.011 3.384 175.403 3.592C175.803 3.792 176.115 4.044 176.339 4.348V3.388H177.719V10.108C177.719 10.716 177.591 11.256 177.335 11.728C177.079 12.208 176.707 12.584 176.219 12.856C175.739 13.128 175.163 13.264 174.491 13.264C173.595 13.264 172.851 13.052 172.259 12.628C171.667 12.212 171.331 11.644 171.251 10.924H172.607C172.711 11.268 172.931 11.544 173.267 11.752C173.611 11.968 174.019 12.076 174.491 12.076C175.043 12.076 175.487 11.908 175.823 11.572C176.167 11.236 176.339 10.748 176.339 10.108V9.004C176.107 9.316 175.791 9.58 175.391 9.796C174.999 10.004 174.551 10.108 174.047 10.108C173.471 10.108 172.943 9.964 172.463 9.676C171.991 9.38 171.615 8.972 171.335 8.452C171.063 7.924 170.927 7.328 170.927 6.664C170.927 6 171.063 5.412 171.335 4.9C171.615 4.388 171.991 3.992 172.463 3.712C172.943 3.424 173.471 3.28 174.047 3.28ZM176.339 6.688C176.339 6.232 176.243 5.836 176.051 5.5C175.867 5.164 175.623 4.908 175.319 4.732C175.015 4.556 174.687 4.468 174.335 4.468C173.983 4.468 173.655 4.556 173.351 4.732C173.047 4.9 172.799 5.152 172.607 5.488C172.423 5.816 172.331 6.208 172.331 6.664C172.331 7.12 172.423 7.52 172.607 7.864C172.799 8.208 173.047 8.472 173.351 8.656C173.663 8.832 173.991 8.92 174.335 8.92C174.687 8.92 175.015 8.832 175.319 8.656C175.623 8.48 175.867 8.224 176.051 7.888C176.243 7.544 176.339 7.144 176.339 6.688ZM183.176 3.28C183.68 3.28 184.128 3.388 184.52 3.604C184.92 3.82 185.232 4.14 185.456 4.564C185.688 4.988 185.804 5.5 185.804 6.1V10H184.448V6.304C184.448 5.712 184.3 5.26 184.004 4.948C183.708 4.628 183.304 4.468 182.792 4.468C182.28 4.468 181.872 4.628 181.568 4.948C181.272 5.26 181.124 5.712 181.124 6.304V10H179.756V1.12H181.124V4.156C181.356 3.876 181.648 3.66 182 3.508C182.36 3.356 182.752 3.28 183.176 3.28ZM189.385 4.504V8.164C189.385 8.412 189.441 8.592 189.553 8.704C189.673 8.808 189.873 8.86 190.153 8.86H190.993V10H189.913C189.297 10 188.825 9.856 188.497 9.568C188.169 9.28 188.005 8.812 188.005 8.164V4.504H187.225V3.388H188.005V1.744H189.385V3.388H190.993V4.504H189.385ZM199.187 3.28C199.707 3.28 200.171 3.388 200.579 3.604C200.995 3.82 201.319 4.14 201.551 4.564C201.783 4.988 201.899 5.5 201.899 6.1V10H200.543V6.304C200.543 5.712 200.395 5.26 200.099 4.948C199.803 4.628 199.399 4.468 198.887 4.468C198.375 4.468 197.967 4.628 197.663 4.948C197.367 5.26 197.219 5.712 197.219 6.304V10H195.851V3.388H197.219V4.144C197.443 3.872 197.727 3.66 198.071 3.508C198.423 3.356 198.795 3.28 199.187 3.28ZM206.752 10.108C206.128 10.108 205.564 9.968 205.06 9.688C204.556 9.4 204.16 9 203.872 8.488C203.584 7.968 203.44 7.368 203.44 6.688C203.44 6.016 203.588 5.42 203.884 4.9C204.18 4.38 204.584 3.98 205.096 3.7C205.608 3.42 206.18 3.28 206.812 3.28C207.444 3.28 208.016 3.42 208.528 3.7C209.04 3.98 209.444 4.38 209.74 4.9C210.036 5.42 210.184 6.016 210.184 6.688C210.184 7.36 210.032 7.956 209.728 8.476C209.424 8.996 209.008 9.4 208.48 9.688C207.96 9.968 207.384 10.108 206.752 10.108ZM206.752 8.92C207.104 8.92 207.432 8.836 207.736 8.668C208.048 8.5 208.3 8.248 208.492 7.912C208.684 7.576 208.78 7.168 208.78 6.688C208.78 6.208 208.688 5.804 208.504 5.476C208.32 5.14 208.076 4.888 207.772 4.72C207.468 4.552 207.14 4.468 206.788 4.468C206.436 4.468 206.108 4.552 205.804 4.72C205.508 4.888 205.272 5.14 205.096 5.476C204.92 5.804 204.832 6.208 204.832 6.688C204.832 7.4 205.012 7.952 205.372 8.344C205.74 8.728 206.2 8.92 206.752 8.92ZM220.656 3.388L218.604 10H217.164L215.832 5.116L214.5 10H213.06L210.996 3.388H212.388L213.768 8.704L215.172 3.388H216.6L217.944 8.68L219.312 3.388H220.656ZM222.47 10.084C222.222 10.084 222.014 10 221.846 9.832C221.678 9.664 221.594 9.456 221.594 9.208C221.594 8.96 221.678 8.752 221.846 8.584C222.014 8.416 222.222 8.332 222.47 8.332C222.71 8.332 222.914 8.416 223.082 8.584C223.25 8.752 223.334 8.96 223.334 9.208C223.334 9.456 223.25 9.664 223.082 9.832C222.914 10 222.71 10.084 222.47 10.084ZM60.3031 27.812C60.3031 26.996 60.4911 26.264 60.8671 25.616C61.2511 24.968 61.7671 24.464 62.4151 24.104C63.0711 23.736 63.7871 23.552 64.5631 23.552C65.4511 23.552 66.2391 23.772 66.9271 24.212C67.6231 24.644 68.1271 25.26 68.4391 26.06H66.7951C66.5791 25.62 66.2791 25.292 65.8951 25.076C65.5111 24.86 65.0671 24.752 64.5631 24.752C64.0111 24.752 63.5191 24.876 63.0871 25.124C62.6551 25.372 62.3151 25.728 62.0671 26.192C61.8271 26.656 61.7071 27.196 61.7071 27.812C61.7071 28.428 61.8271 28.968 62.0671 29.432C62.3151 29.896 62.6551 30.256 63.0871 30.512C63.5191 30.76 64.0111 30.884 64.5631 30.884C65.0671 30.884 65.5111 30.776 65.8951 30.56C66.2791 30.344 66.5791 30.016 66.7951 29.576H68.4391C68.1271 30.376 67.6231 30.992 66.9271 31.424C66.2391 31.856 65.4511 32.072 64.5631 32.072C63.7791 32.072 63.0631 31.892 62.4151 31.532C61.7671 31.164 61.2511 30.656 60.8671 30.008C60.4911 29.36 60.3031 28.628 60.3031 27.812ZM73.1483 32.108C72.5243 32.108 71.9603 31.968 71.4563 31.688C70.9523 31.4 70.5563 31 70.2683 30.488C69.9803 29.968 69.8363 29.368 69.8363 28.688C69.8363 28.016 69.9843 27.42 70.2803 26.9C70.5763 26.38 70.9803 25.98 71.4923 25.7C72.0043 25.42 72.5763 25.28 73.2083 25.28C73.8403 25.28 74.4123 25.42 74.9243 25.7C75.4363 25.98 75.8403 26.38 76.1363 26.9C76.4323 27.42 76.5803 28.016 76.5803 28.688C76.5803 29.36 76.4283 29.956 76.1243 30.476C75.8203 30.996 75.4043 31.4 74.8763 31.688C74.3563 31.968 73.7803 32.108 73.1483 32.108ZM73.1483 30.92C73.5003 30.92 73.8283 30.836 74.1323 30.668C74.4443 30.5 74.6963 30.248 74.8883 29.912C75.0803 29.576 75.1763 29.168 75.1763 28.688C75.1763 28.208 75.0843 27.804 74.9003 27.476C74.7163 27.14 74.4723 26.888 74.1683 26.72C73.8643 26.552 73.5363 26.468 73.1843 26.468C72.8323 26.468 72.5043 26.552 72.2003 26.72C71.9043 26.888 71.6683 27.14 71.4923 27.476C71.3163 27.804 71.2283 28.208 71.2283 28.688C71.2283 29.4 71.4083 29.952 71.7683 30.344C72.1363 30.728 72.5963 30.92 73.1483 30.92ZM86.1767 25.28C86.6967 25.28 87.1607 25.388 87.5687 25.604C87.9847 25.82 88.3087 26.14 88.5407 26.564C88.7807 26.988 88.9007 27.5 88.9007 28.1V32H87.5447V28.304C87.5447 27.712 87.3967 27.26 87.1007 26.948C86.8047 26.628 86.4007 26.468 85.8887 26.468C85.3767 26.468 84.9687 26.628 84.6647 26.948C84.3687 27.26 84.2207 27.712 84.2207 28.304V32H82.8647V28.304C82.8647 27.712 82.7167 27.26 82.4207 26.948C82.1247 26.628 81.7207 26.468 81.2087 26.468C80.6967 26.468 80.2887 26.628 79.9847 26.948C79.6887 27.26 79.5407 27.712 79.5407 28.304V32H78.1727V25.388H79.5407V26.144C79.7647 25.872 80.0487 25.66 80.3927 25.508C80.7367 25.356 81.1047 25.28 81.4967 25.28C82.0247 25.28 82.4967 25.392 82.9127 25.616C83.3287 25.84 83.6487 26.164 83.8727 26.588C84.0727 26.188 84.3847 25.872 84.8087 25.64C85.2327 25.4 85.6887 25.28 86.1767 25.28ZM96.9414 28.532C96.9414 28.78 96.9254 29.004 96.8934 29.204H91.8414C91.8814 29.732 92.0774 30.156 92.4294 30.476C92.7814 30.796 93.2134 30.956 93.7254 30.956C94.4614 30.956 94.9814 30.648 95.2854 30.032H96.7614C96.5614 30.64 96.1974 31.14 95.6694 31.532C95.1494 31.916 94.5014 32.108 93.7254 32.108C93.0934 32.108 92.5254 31.968 92.0214 31.688C91.5254 31.4 91.1334 31 90.8454 30.488C90.5654 29.968 90.4254 29.368 90.4254 28.688C90.4254 28.008 90.5614 27.412 90.8334 26.9C91.1134 26.38 91.5014 25.98 91.9974 25.7C92.5014 25.42 93.0774 25.28 93.7254 25.28C94.3494 25.28 94.9054 25.416 95.3934 25.688C95.8814 25.96 96.2614 26.344 96.5334 26.84C96.8054 27.328 96.9414 27.892 96.9414 28.532ZM95.5134 28.1C95.5054 27.596 95.3254 27.192 94.9734 26.888C94.6214 26.584 94.1854 26.432 93.6654 26.432C93.1934 26.432 92.7894 26.584 92.4534 26.888C92.1174 27.184 91.9174 27.588 91.8534 28.1H95.5134ZM103.253 26.372C103.485 26.052 103.801 25.792 104.201 25.592C104.609 25.384 105.061 25.28 105.557 25.28C106.141 25.28 106.669 25.42 107.141 25.7C107.613 25.98 107.985 26.38 108.257 26.9C108.529 27.412 108.665 28 108.665 28.664C108.665 29.328 108.529 29.924 108.257 30.452C107.985 30.972 107.609 31.38 107.129 31.676C106.657 31.964 106.133 32.108 105.557 32.108C105.045 32.108 104.589 32.008 104.189 31.808C103.797 31.608 103.485 31.352 103.253 31.04V32H101.885V23.12H103.253V26.372ZM107.273 28.664C107.273 28.208 107.177 27.816 106.985 27.488C106.801 27.152 106.553 26.9 106.241 26.732C105.937 26.556 105.609 26.468 105.257 26.468C104.913 26.468 104.585 26.556 104.273 26.732C103.969 26.908 103.721 27.164 103.529 27.5C103.345 27.836 103.253 28.232 103.253 28.688C103.253 29.144 103.345 29.544 103.529 29.888C103.721 30.224 103.969 30.48 104.273 30.656C104.585 30.832 104.913 30.92 105.257 30.92C105.609 30.92 105.937 30.832 106.241 30.656C106.553 30.472 106.801 30.208 106.985 29.864C107.177 29.52 107.273 29.12 107.273 28.664ZM109.802 28.664C109.802 28 109.938 27.412 110.21 26.9C110.49 26.388 110.866 25.992 111.338 25.712C111.818 25.424 112.346 25.28 112.922 25.28C113.442 25.28 113.894 25.384 114.278 25.592C114.67 25.792 114.982 26.044 115.214 26.348V25.388H116.594V32H115.214V31.016C114.982 31.328 114.666 31.588 114.266 31.796C113.866 32.004 113.41 32.108 112.898 32.108C112.33 32.108 111.81 31.964 111.338 31.676C110.866 31.38 110.49 30.972 110.21 30.452C109.938 29.924 109.802 29.328 109.802 28.664ZM115.214 28.688C115.214 28.232 115.118 27.836 114.926 27.5C114.742 27.164 114.498 26.908 114.194 26.732C113.89 26.556 113.562 26.468 113.21 26.468C112.858 26.468 112.53 26.556 112.226 26.732C111.922 26.9 111.674 27.152 111.482 27.488C111.298 27.816 111.206 28.208 111.206 28.664C111.206 29.12 111.298 29.52 111.482 29.864C111.674 30.208 111.922 30.472 112.226 30.656C112.538 30.832 112.866 30.92 113.21 30.92C113.562 30.92 113.89 30.832 114.194 30.656C114.498 30.48 114.742 30.224 114.926 29.888C115.118 29.544 115.214 29.144 115.214 28.688ZM118.174 28.688C118.174 28.008 118.31 27.412 118.582 26.9C118.862 26.38 119.246 25.98 119.734 25.7C120.222 25.42 120.782 25.28 121.414 25.28C122.214 25.28 122.874 25.472 123.394 25.856C123.922 26.232 124.278 26.772 124.462 27.476H122.986C122.866 27.148 122.674 26.892 122.41 26.708C122.146 26.524 121.814 26.432 121.414 26.432C120.854 26.432 120.406 26.632 120.07 27.032C119.742 27.424 119.578 27.976 119.578 28.688C119.578 29.4 119.742 29.956 120.07 30.356C120.406 30.756 120.854 30.956 121.414 30.956C122.206 30.956 122.73 30.608 122.986 29.912H124.462C124.27 30.584 123.91 31.12 123.382 31.52C122.854 31.912 122.198 32.108 121.414 32.108C120.782 32.108 120.222 31.968 119.734 31.688C119.246 31.4 118.862 31 118.582 30.488C118.31 29.968 118.174 29.368 118.174 28.688ZM128.682 28.7L131.73 32H129.882L127.434 29.156V32H126.066V23.12H127.434V28.28L129.834 25.388H131.73L128.682 28.7ZM137.676 23.12V32H136.308V23.12H137.676ZM139.256 28.664C139.256 28 139.392 27.412 139.664 26.9C139.944 26.388 140.32 25.992 140.792 25.712C141.272 25.424 141.8 25.28 142.376 25.28C142.896 25.28 143.348 25.384 143.732 25.592C144.124 25.792 144.436 26.044 144.668 26.348V25.388H146.048V32H144.668V31.016C144.436 31.328 144.12 31.588 143.72 31.796C143.32 32.004 142.864 32.108 142.352 32.108C141.784 32.108 141.264 31.964 140.792 31.676C140.32 31.38 139.944 30.972 139.664 30.452C139.392 29.924 139.256 29.328 139.256 28.664ZM144.668 28.688C144.668 28.232 144.572 27.836 144.38 27.5C144.196 27.164 143.952 26.908 143.648 26.732C143.344 26.556 143.016 26.468 142.664 26.468C142.312 26.468 141.984 26.556 141.68 26.732C141.376 26.9 141.128 27.152 140.936 27.488C140.752 27.816 140.66 28.208 140.66 28.664C140.66 29.12 140.752 29.52 140.936 29.864C141.128 30.208 141.376 30.472 141.68 30.656C141.992 30.832 142.32 30.92 142.664 30.92C143.016 30.92 143.344 30.832 143.648 30.656C143.952 30.48 144.196 30.224 144.38 29.888C144.572 29.544 144.668 29.144 144.668 28.688ZM149.68 26.504V30.164C149.68 30.412 149.736 30.592 149.848 30.704C149.968 30.808 150.168 30.86 150.448 30.86H151.288V32H150.208C149.592 32 149.12 31.856 148.792 31.568C148.464 31.28 148.3 30.812 148.3 30.164V26.504H147.52V25.388H148.3V23.744H149.68V25.388H151.288V26.504H149.68ZM158.849 28.532C158.849 28.78 158.833 29.004 158.801 29.204H153.749C153.789 29.732 153.985 30.156 154.337 30.476C154.689 30.796 155.121 30.956 155.633 30.956C156.369 30.956 156.889 30.648 157.193 30.032H158.669C158.469 30.64 158.105 31.14 157.577 31.532C157.057 31.916 156.409 32.108 155.633 32.108C155.001 32.108 154.433 31.968 153.929 31.688C153.433 31.4 153.041 31 152.753 30.488C152.473 29.968 152.333 29.368 152.333 28.688C152.333 28.008 152.469 27.412 152.741 26.9C153.021 26.38 153.409 25.98 153.905 25.7C154.409 25.42 154.985 25.28 155.633 25.28C156.257 25.28 156.813 25.416 157.301 25.688C157.789 25.96 158.169 26.344 158.441 26.84C158.713 27.328 158.849 27.892 158.849 28.532ZM157.421 28.1C157.413 27.596 157.233 27.192 156.881 26.888C156.529 26.584 156.093 26.432 155.573 26.432C155.101 26.432 154.697 26.584 154.361 26.888C154.025 27.184 153.825 27.588 153.761 28.1H157.421ZM161.803 26.348C162.003 26.012 162.267 25.752 162.595 25.568C162.931 25.376 163.327 25.28 163.783 25.28V26.696H163.435C162.899 26.696 162.491 26.832 162.211 27.104C161.939 27.376 161.803 27.848 161.803 28.52V32H160.435V25.388H161.803V26.348Z" fill="#999999"/>
</svg>
