<svg width="22" height="16" viewBox="0 0 22 16" fill="none" xmlns="http://www.w3.org/2000/svg">
<path d="M5.72727 9C5.72727 8.783 5.81347 8.5749 5.96691 8.42146C6.12035 8.26802 6.32846 8.18182 6.54545 8.18182H13.9091V2.86364C13.9091 1.22727 12.1812 0 10.6364 0H2.86364C2.1044 0.000812161 1.3765 0.302777 0.839637 0.839637C0.302777 1.3765 0.000812161 2.1044 0 2.86364V15.1364C0.000812161 15.8956 0.302777 16.6235 0.839637 17.1604C1.3765 17.6972 2.1044 17.9992 2.86364 18H11.0455C11.8047 17.9992 12.5326 17.6972 13.0695 17.1604C13.6063 16.6235 13.9083 15.8956 13.9091 15.1364V9.81818H6.54545C6.32846 9.81818 6.12035 9.73198 5.96691 9.57854C5.81347 9.4251 5.72727 9.217 5.72727 9ZM21.0329 8.42165L16.942 4.33074C16.7873 4.18378 16.5813 4.10306 16.368 4.10579C16.1546 4.10852 15.9508 4.19449 15.7999 4.34536C15.649 4.49623 15.5631 4.70008 15.5603 4.91343C15.5576 5.12678 15.6383 5.33276 15.7853 5.48744L18.4791 8.18182H13.9091V9.81818H18.4791L15.7853 12.5126C15.7061 12.5878 15.6428 12.6781 15.5991 12.7782C15.5554 12.8782 15.5321 12.986 15.5307 13.0952C15.5293 13.2044 15.5498 13.3128 15.5909 13.414C15.6321 13.5151 15.6931 13.607 15.7703 13.6843C15.8475 13.7615 15.9394 13.8225 16.0406 13.8636C16.1417 13.9048 16.2501 13.9252 16.3593 13.9238C16.4685 13.9224 16.5763 13.8992 16.6764 13.8555C16.7765 13.8117 16.8668 13.7484 16.942 13.6693L21.0329 9.57835C21.1862 9.42493 21.2723 9.2169 21.2723 9C21.2723 8.7831 21.1862 8.57507 21.0329 8.42165Z" fill="#2EC4B6"/>
</svg>
