<svg width="23" height="20" viewBox="0 0 23 20" fill="none" xmlns="http://www.w3.org/2000/svg">
<path d="M23 1.42857C23 1.04969 22.8495 0.686328 22.5816 0.418419C22.3137 0.15051 21.9503 0 21.5714 0H1.57143C1.19255 0 0.829184 0.15051 0.561274 0.418419C0.293365 0.686328 0.142857 1.04969 0.142857 1.42857C0.142857 1.80745 0.293365 2.17081 0.561274 2.43872C0.829184 2.70663 1.19255 2.85714 1.57143 2.85714H21.5714C21.9503 2.85714 22.3137 2.70663 22.5816 2.43872C22.8495 2.17081 23 1.80745 23 1.42857ZM23 18.5714C23 18.1925 22.8495 17.8292 22.5816 17.5613C22.3137 17.2934 21.9503 17.1429 21.5714 17.1429H1.57143C1.19255 17.1429 0.829184 17.2934 0.561274 17.5613C0.293365 17.8292 0.142857 18.1925 0.142857 18.5714C0.142857 18.9503 0.293365 19.3137 0.561274 19.5816C0.829184 19.8495 1.19255 20 1.57143 20H21.5714C21.9503 20 22.3137 19.8495 22.5816 19.5816C22.8495 19.3137 23 18.9503 23 18.5714ZM13 8.57143C13.3789 8.57143 13.7422 8.72194 14.0102 8.98985C14.2781 9.25776 14.4286 9.62112 14.4286 10C14.4286 10.3789 14.2781 10.7422 14.0102 11.0102C13.7422 11.2781 13.3789 11.4286 13 11.4286H1.57143C1.19255 11.4286 0.829184 11.2781 0.561274 11.0102C0.293365 10.7422 0.142857 10.3789 0.142857 10C0.142857 9.62112 0.293365 9.25776 0.561274 8.98985C0.829184 8.72194 1.19255 8.57143 1.57143 8.57143H13Z" fill="#111111"/>
</svg>
