<svg width="164" height="14" viewBox="0 0 164 14" fill="none" xmlns="http://www.w3.org/2000/svg">
<path d="M9.656 13H7.416L2.344 5.336V13H0.104V1.816H2.344L7.416 9.496V1.816H9.656V13ZM16.1256 13.144C15.2723 13.144 14.5043 12.9573 13.8216 12.584C13.139 12.2 12.6003 11.6613 12.2056 10.968C11.8216 10.2747 11.6296 9.47467 11.6296 8.568C11.6296 7.66133 11.827 6.86133 12.2216 6.168C12.627 5.47467 13.1763 4.94133 13.8696 4.568C14.563 4.184 15.3363 3.992 16.1896 3.992C17.043 3.992 17.8163 4.184 18.5096 4.568C19.203 4.94133 19.747 5.47467 20.1416 6.168C20.547 6.86133 20.7496 7.66133 20.7496 8.568C20.7496 9.47467 20.5416 10.2747 20.1256 10.968C19.7203 11.6613 19.1656 12.2 18.4616 12.584C17.7683 12.9573 16.9896 13.144 16.1256 13.144ZM16.1256 11.192C16.531 11.192 16.9096 11.096 17.2616 10.904C17.6243 10.7013 17.9123 10.4027 18.1256 10.008C18.339 9.61333 18.4456 9.13333 18.4456 8.568C18.4456 7.72533 18.2216 7.08 17.7736 6.632C17.3363 6.17333 16.7976 5.944 16.1576 5.944C15.5176 5.944 14.979 6.17333 14.5416 6.632C14.115 7.08 13.9016 7.72533 13.9016 8.568C13.9016 9.41067 14.1096 10.0613 14.5256 10.52C14.9523 10.968 15.4856 11.192 16.1256 11.192ZM36.3972 13H34.1572L29.0852 5.336V13H26.8452V1.816H29.0852L34.1572 9.496V1.816H36.3972V13ZM42.8669 13.144C42.0135 13.144 41.2455 12.9573 40.5629 12.584C39.8802 12.2 39.3415 11.6613 38.9469 10.968C38.5629 10.2747 38.3709 9.47467 38.3709 8.568C38.3709 7.66133 38.5682 6.86133 38.9629 6.168C39.3682 5.47467 39.9175 4.94133 40.6109 4.568C41.3042 4.184 42.0775 3.992 42.9309 3.992C43.7842 3.992 44.5575 4.184 45.2509 4.568C45.9442 4.94133 46.4882 5.47467 46.8829 6.168C47.2882 6.86133 47.4909 7.66133 47.4909 8.568C47.4909 9.47467 47.2829 10.2747 46.8669 10.968C46.4615 11.6613 45.9069 12.2 45.2029 12.584C44.5095 12.9573 43.7309 13.144 42.8669 13.144ZM42.8669 11.192C43.2722 11.192 43.6509 11.096 44.0029 10.904C44.3655 10.7013 44.6535 10.4027 44.8669 10.008C45.0802 9.61333 45.1869 9.13333 45.1869 8.568C45.1869 7.72533 44.9629 7.08 44.5149 6.632C44.0775 6.17333 43.5389 5.944 42.8989 5.944C42.2589 5.944 41.7202 6.17333 41.2829 6.632C40.8562 7.08 40.6429 7.72533 40.6429 8.568C40.6429 9.41067 40.8509 10.0613 41.2669 10.52C41.6935 10.968 42.2269 11.192 42.8669 11.192ZM52.062 5.976V10.264C52.062 10.5627 52.1313 10.7813 52.27 10.92C52.4193 11.048 52.6647 11.112 53.006 11.112H54.046V13H52.638C50.75 13 49.806 12.0827 49.806 10.248V5.976H48.75V4.136H49.806V1.944H52.062V4.136H54.046V5.976H52.062ZM57.1131 3.08C56.7185 3.08 56.3878 2.95733 56.1211 2.712C55.8651 2.456 55.7371 2.14133 55.7371 1.768C55.7371 1.39467 55.8651 1.08533 56.1211 0.839999C56.3878 0.583999 56.7185 0.455999 57.1131 0.455999C57.5078 0.455999 57.8331 0.583999 58.0891 0.839999C58.3558 1.08533 58.4891 1.39467 58.4891 1.768C58.4891 2.14133 58.3558 2.456 58.0891 2.712C57.8331 2.95733 57.5078 3.08 57.1131 3.08ZM58.2171 4.136V13H55.9771V4.136H58.2171ZM64.8143 5.976H63.2623V13H60.9903V5.976H59.9823V4.136H60.9903V3.688C60.9903 2.6 61.2996 1.8 61.9183 1.288C62.5369 0.775999 63.4703 0.536 64.7183 0.568V2.456C64.1743 2.44533 63.7956 2.536 63.5823 2.728C63.3689 2.92 63.2623 3.26667 63.2623 3.768V4.136H64.8143V5.976ZM67.7219 3.08C67.3272 3.08 66.9965 2.95733 66.7299 2.712C66.4739 2.456 66.3459 2.14133 66.3459 1.768C66.3459 1.39467 66.4739 1.08533 66.7299 0.839999C66.9965 0.583999 67.3272 0.455999 67.7219 0.455999C68.1165 0.455999 68.4419 0.583999 68.6979 0.839999C68.9645 1.08533 69.0979 1.39467 69.0979 1.768C69.0979 2.14133 68.9645 2.456 68.6979 2.712C68.4419 2.95733 68.1165 3.08 67.7219 3.08ZM68.8259 4.136V13H66.5859V4.136H68.8259ZM70.783 8.568C70.783 7.65067 70.9697 6.85067 71.343 6.168C71.7163 5.47467 72.2337 4.94133 72.895 4.568C73.5563 4.184 74.3137 3.992 75.167 3.992C76.2657 3.992 77.1723 4.26933 77.887 4.824C78.6123 5.368 79.0977 6.136 79.343 7.128H76.927C76.799 6.744 76.5803 6.44533 76.271 6.232C75.9723 6.008 75.599 5.896 75.151 5.896C74.511 5.896 74.0043 6.13067 73.631 6.6C73.2577 7.05867 73.071 7.71467 73.071 8.568C73.071 9.41067 73.2577 10.0667 73.631 10.536C74.0043 10.9947 74.511 11.224 75.151 11.224C76.0577 11.224 76.6497 10.8187 76.927 10.008H79.343C79.0977 10.968 78.6123 11.7307 77.887 12.296C77.1617 12.8613 76.255 13.144 75.167 13.144C74.3137 13.144 73.5563 12.9573 72.895 12.584C72.2337 12.2 71.7163 11.6667 71.343 10.984C70.9697 10.2907 70.783 9.48533 70.783 8.568ZM80.728 8.536C80.728 7.64 80.904 6.84533 81.256 6.152C81.6187 5.45867 82.104 4.92533 82.712 4.552C83.3307 4.17867 84.0187 3.992 84.776 3.992C85.4373 3.992 86.0133 4.12533 86.504 4.392C87.0053 4.65867 87.4053 4.99467 87.704 5.4V4.136H89.96V13H87.704V11.704C87.416 12.12 87.016 12.4667 86.504 12.744C86.0027 13.0107 85.4213 13.144 84.76 13.144C84.0133 13.144 83.3307 12.952 82.712 12.568C82.104 12.184 81.6187 11.6453 81.256 10.952C80.904 10.248 80.728 9.44267 80.728 8.536ZM87.704 8.568C87.704 8.024 87.5973 7.56 87.384 7.176C87.1707 6.78133 86.8827 6.48267 86.52 6.28C86.1573 6.06667 85.768 5.96 85.352 5.96C84.936 5.96 84.552 6.06133 84.2 6.264C83.848 6.46667 83.56 6.76533 83.336 7.16C83.1227 7.544 83.016 8.00267 83.016 8.536C83.016 9.06933 83.1227 9.53867 83.336 9.944C83.56 10.3387 83.848 10.6427 84.2 10.856C84.5627 11.0693 84.9467 11.176 85.352 11.176C85.768 11.176 86.1573 11.0747 86.52 10.872C86.8827 10.6587 87.1707 10.36 87.384 9.976C87.5973 9.58133 87.704 9.112 87.704 8.568ZM95.0757 5.976V10.264C95.0757 10.5627 95.1451 10.7813 95.2837 10.92C95.4331 11.048 95.6784 11.112 96.0197 11.112H97.0597V13H95.6517C93.7637 13 92.8197 12.0827 92.8197 10.248V5.976H91.7637V4.136H92.8197V1.944H95.0757V4.136H97.0597V5.976H95.0757ZM100.127 3.08C99.7322 3.08 99.4015 2.95733 99.1349 2.712C98.8789 2.456 98.7509 2.14133 98.7509 1.768C98.7509 1.39467 98.8789 1.08533 99.1349 0.839999C99.4015 0.583999 99.7322 0.455999 100.127 0.455999C100.522 0.455999 100.847 0.583999 101.103 0.839999C101.37 1.08533 101.503 1.39467 101.503 1.768C101.503 2.14133 101.37 2.456 101.103 2.712C100.847 2.95733 100.522 3.08 100.127 3.08ZM101.231 4.136V13H98.9909V4.136H101.231ZM107.7 13.144C106.847 13.144 106.079 12.9573 105.396 12.584C104.713 12.2 104.175 11.6613 103.78 10.968C103.396 10.2747 103.204 9.47467 103.204 8.568C103.204 7.66133 103.401 6.86133 103.796 6.168C104.201 5.47467 104.751 4.94133 105.444 4.568C106.137 4.184 106.911 3.992 107.764 3.992C108.617 3.992 109.391 4.184 110.084 4.568C110.777 4.94133 111.321 5.47467 111.716 6.168C112.121 6.86133 112.324 7.66133 112.324 8.568C112.324 9.47467 112.116 10.2747 111.7 10.968C111.295 11.6613 110.74 12.2 110.036 12.584C109.343 12.9573 108.564 13.144 107.7 13.144ZM107.7 11.192C108.105 11.192 108.484 11.096 108.836 10.904C109.199 10.7013 109.487 10.4027 109.7 10.008C109.913 9.61333 110.02 9.13333 110.02 8.568C110.02 7.72533 109.796 7.08 109.348 6.632C108.911 6.17333 108.372 5.944 107.732 5.944C107.092 5.944 106.553 6.17333 106.116 6.632C105.689 7.08 105.476 7.72533 105.476 8.568C105.476 9.41067 105.684 10.0613 106.1 10.52C106.527 10.968 107.06 11.192 107.7 11.192ZM119.199 4.008C120.255 4.008 121.108 4.344 121.759 5.016C122.41 5.67733 122.735 6.60533 122.735 7.8V13H120.495V8.104C120.495 7.4 120.319 6.86133 119.967 6.488C119.615 6.104 119.135 5.912 118.527 5.912C117.908 5.912 117.418 6.104 117.055 6.488C116.703 6.86133 116.527 7.4 116.527 8.104V13H114.287V4.136H116.527V5.24C116.826 4.856 117.204 4.55733 117.663 4.344C118.132 4.12 118.644 4.008 119.199 4.008ZM128.577 13.144C127.852 13.144 127.201 13.016 126.625 12.76C126.049 12.4933 125.591 12.136 125.249 11.688C124.919 11.24 124.737 10.744 124.705 10.2H126.961C127.004 10.5413 127.169 10.824 127.457 11.048C127.756 11.272 128.124 11.384 128.561 11.384C128.988 11.384 129.319 11.2987 129.553 11.128C129.799 10.9573 129.921 10.7387 129.921 10.472C129.921 10.184 129.772 9.97067 129.473 9.832C129.185 9.68267 128.721 9.52267 128.081 9.352C127.42 9.192 126.876 9.02667 126.449 8.856C126.033 8.68533 125.671 8.424 125.361 8.072C125.063 7.72 124.913 7.24533 124.913 6.648C124.913 6.15733 125.052 5.70933 125.329 5.304C125.617 4.89867 126.023 4.57867 126.545 4.344C127.079 4.10933 127.703 3.992 128.417 3.992C129.473 3.992 130.316 4.25867 130.945 4.792C131.575 5.31467 131.921 6.024 131.985 6.92H129.841C129.809 6.568 129.66 6.29067 129.393 6.088C129.137 5.87467 128.791 5.768 128.353 5.768C127.948 5.768 127.633 5.84267 127.409 5.992C127.196 6.14133 127.089 6.34933 127.089 6.616C127.089 6.91467 127.239 7.144 127.537 7.304C127.836 7.45333 128.3 7.608 128.929 7.768C129.569 7.928 130.097 8.09333 130.513 8.264C130.929 8.43467 131.287 8.70133 131.585 9.064C131.895 9.416 132.055 9.88533 132.065 10.472C132.065 10.984 131.921 11.4427 131.633 11.848C131.356 12.2533 130.951 12.5733 130.417 12.808C129.895 13.032 129.281 13.144 128.577 13.144ZM147.237 1.832L143.461 9.112V13H141.221V9.112L137.429 1.832H139.957L142.357 6.936L144.741 1.832H147.237ZM157.088 8.376C157.088 8.696 157.067 8.984 157.024 9.24H150.544C150.598 9.88 150.822 10.3813 151.216 10.744C151.611 11.1067 152.096 11.288 152.672 11.288C153.504 11.288 154.096 10.9307 154.448 10.216H156.864C156.608 11.0693 156.118 11.7733 155.392 12.328C154.667 12.872 153.776 13.144 152.72 13.144C151.867 13.144 151.099 12.9573 150.416 12.584C149.744 12.2 149.216 11.6613 148.832 10.968C148.459 10.2747 148.272 9.47467 148.272 8.568C148.272 7.65067 148.459 6.84533 148.832 6.152C149.206 5.45867 149.728 4.92533 150.4 4.552C151.072 4.17867 151.846 3.992 152.72 3.992C153.563 3.992 154.315 4.17333 154.976 4.536C155.648 4.89867 156.166 5.416 156.528 6.088C156.902 6.74933 157.088 7.512 157.088 8.376ZM154.768 7.736C154.758 7.16 154.55 6.70133 154.144 6.36C153.739 6.008 153.243 5.832 152.656 5.832C152.102 5.832 151.632 6.00267 151.248 6.344C150.875 6.67467 150.646 7.13867 150.56 7.736H154.768ZM161.651 5.976V10.264C161.651 10.5627 161.721 10.7813 161.859 10.92C162.009 11.048 162.254 11.112 162.595 11.112H163.635V13H162.227C160.339 13 159.395 12.0827 159.395 10.248V5.976H158.339V4.136H159.395V1.944H161.651V4.136H163.635V5.976H161.651Z" fill="black"/>
</svg>
