<svg width="16" height="18" viewBox="0 0 16 18" fill="none" xmlns="http://www.w3.org/2000/svg">
<path d="M12.2888 0H14.6298C14.8639 0 15.046 0.187283 15.0408 0.416185C15.0408 0.483815 15.02 0.551444 14.9888 0.613872L10.3431 9.15087H12.8974C13.1263 9.15087 13.3136 9.33815 13.3136 9.56705V10.6751C13.3136 10.904 13.1263 11.0913 12.8974 11.0913H9.49511V12.8445H12.8974C13.1263 12.8445 13.3136 13.0318 13.3136 13.2607V14.3688C13.3136 14.5977 13.1263 14.785 12.8974 14.785H9.49511V17.5838C9.49511 17.8127 9.30783 18 9.07892 18H6.93037C6.70147 18 6.51419 17.8127 6.51419 17.5838V14.785H3.12748C2.89858 14.785 2.71129 14.5977 2.71129 14.3688V13.2607C2.71129 13.0318 2.89858 12.8445 3.12748 12.8445H6.51419V11.0913H3.12748C2.89858 11.0913 2.71129 10.904 2.71129 10.6751V9.56705C2.71129 9.33815 2.89858 9.15087 3.12748 9.15087H5.6558L1.01014 0.619074C0.90089 0.416184 0.973721 0.161272 1.17661 0.0520233C1.23384 0.0156071 1.30667 0 1.3743 0H3.76736C3.84404 0.000424521 3.91911 0.0220248 3.98429 0.0624173C4.04947 0.10281 4.10222 0.160423 4.13673 0.228901L7.95523 7.79306H8.10089L11.9194 0.228901C11.987 0.0884386 12.1327 0 12.2888 0Z" fill="#2EC4B6"/>
</svg>
