<svg width="15" height="18" viewBox="0 0 15 18" fill="none" xmlns="http://www.w3.org/2000/svg">
<path d="M6.3 13.5H8.1V8.1H6.3V13.5ZM7.2 6.3C7.455 6.3 7.6689 6.2136 7.8417 6.0408C8.0139 5.8686 8.1 5.655 8.1 5.4C8.1 5.145 8.0139 4.9311 7.8417 4.7583C7.6689 4.5861 7.455 4.5 7.2 4.5C6.945 4.5 6.7314 4.5861 6.5592 4.7583C6.3864 4.9311 6.3 5.145 6.3 5.4C6.3 5.655 6.3864 5.8686 6.5592 6.0408C6.7314 6.2136 6.945 6.3 7.2 6.3ZM7.2 18C5.115 17.475 3.3939 16.2786 2.0367 14.4108C0.6789 12.5436 0 10.47 0 8.19V2.7L7.2 0L14.4 2.7V8.19C14.4 10.47 13.7214 12.5436 12.3642 14.4108C11.0064 16.2786 9.285 17.475 7.2 18Z" fill="#2EC4B6"/>
</svg>
