<svg width="16" height="18" viewBox="0 0 16 18" fill="none" xmlns="http://www.w3.org/2000/svg">
<path d="M11.1265 10.7066C12.226 10.7066 13.283 11.1311 14.0772 11.8915C14.8713 12.652 15.3412 13.6896 15.3889 14.788L15.3932 14.9732V15.8266C15.3933 16.2571 15.2307 16.6718 14.938 16.9876C14.6452 17.3033 14.2439 17.4967 13.8145 17.529L13.6865 17.5332H1.73987C1.3093 17.5334 0.894586 17.3707 0.578869 17.078C0.263151 16.7852 0.0697628 16.3839 0.0374699 15.9546L0.0332031 15.8266V14.9732C0.0332666 13.8737 0.457772 12.8167 1.21819 12.0226C1.97861 11.2285 3.01624 10.7585 4.1147 10.7108L4.29987 10.7066H11.1265ZM7.7132 0.466553C8.84479 0.466553 9.93004 0.916075 10.7302 1.71623C11.5303 2.51639 11.9799 3.60163 11.9799 4.73322C11.9799 5.86481 11.5303 6.95005 10.7302 7.75021C9.93004 8.55036 8.84479 8.99989 7.7132 8.99989C6.58161 8.99989 5.49637 8.55036 4.69621 7.75021C3.89606 6.95005 3.44654 5.86481 3.44654 4.73322C3.44654 3.60163 3.89606 2.51639 4.69621 1.71623C5.49637 0.916075 6.58161 0.466553 7.7132 0.466553Z" fill="#2EC4B6"/>
</svg>
