<svg width="17" height="17" viewBox="0 0 17 17" fill="none" xmlns="http://www.w3.org/2000/svg">
<path fill-rule="evenodd" clip-rule="evenodd" d="M7.7507 0.666504C6.62119 0.6666 5.50809 0.936807 4.50425 1.45458C3.50041 1.97236 2.63494 2.72268 1.98006 3.64297C1.32518 4.56325 0.899874 5.62679 0.739623 6.74487C0.579372 7.86295 0.688824 9.00315 1.05885 10.0703C1.42887 11.1375 2.04874 12.1007 2.86673 12.8796C3.68472 13.6585 4.67712 14.2305 5.76113 14.5478C6.84513 14.8652 7.98932 14.9187 9.09822 14.7039C10.2071 14.4892 11.2486 14.0123 12.1357 13.3132L15.179 16.3565C15.3362 16.5083 15.5467 16.5923 15.7652 16.5904C15.9837 16.5885 16.1927 16.5009 16.3472 16.3464C16.5017 16.1918 16.5894 15.9828 16.5913 15.7643C16.5932 15.5458 16.5092 15.3353 16.3574 15.1782L13.314 12.1348C14.1374 11.0904 14.65 9.83517 14.7933 8.51294C14.9366 7.19071 14.7047 5.85485 14.1242 4.65825C13.5437 3.46164 12.6381 2.45263 11.511 1.7467C10.3838 1.04076 9.08067 0.666415 7.7507 0.666504ZM2.33403 7.74984C2.33403 6.31325 2.90472 4.9355 3.92054 3.91968C4.93636 2.90385 6.31411 2.33317 7.7507 2.33317C9.18729 2.33317 10.565 2.90385 11.5809 3.91968C12.5967 4.9355 13.1674 6.31325 13.1674 7.74984C13.1674 9.18643 12.5967 10.5642 11.5809 11.58C10.565 12.5958 9.18729 13.1665 7.7507 13.1665C6.31411 13.1665 4.93636 12.5958 3.92054 11.58C2.90472 10.5642 2.33403 9.18643 2.33403 7.74984Z" fill="#999999"/>
</svg>
