<svg width="24" height="24" viewBox="0 0 24 24" fill="none" xmlns="http://www.w3.org/2000/svg">
<path d="M8.7 8.7V7.7C8.14772 7.7 7.7 8.14772 7.7 8.7H8.7ZM8.80957 8.7H9.80957C9.80957 8.14772 9.36185 7.7 8.80957 7.7V8.7ZM15.3 8.7V7.7C14.7477 7.7 14.3 8.14772 14.3 8.7H15.3ZM15.3974 8.7H16.3974C16.3974 8.14772 15.9497 7.7 15.3974 7.7V8.7ZM8.80957 8.78809V9.78809C9.36185 9.78809 9.80957 9.34037 9.80957 8.78809H8.80957ZM8.7 8.78809H7.7C7.7 9.34037 8.14772 9.78809 8.7 9.78809V8.78809ZM15.3974 8.78809V9.78809C15.9497 9.78809 16.3974 9.34037 16.3974 8.78809H15.3974ZM15.3 8.78809H14.3C14.3 9.34037 14.7477 9.78809 15.3 9.78809V8.78809ZM9.03689 14.8185C8.74621 14.3489 8.12988 14.2039 7.66028 14.4946C7.19069 14.7853 7.04565 15.4016 7.33633 15.8712L9.03689 14.8185ZM16.6637 15.8712C16.9544 15.4016 16.8093 14.7853 16.3397 14.4946C15.8701 14.2039 15.2538 14.3489 14.9631 14.8185L16.6637 15.8712ZM22 12C22 17.5228 17.5228 22 12 22V24C18.6274 24 24 18.6274 24 12H22ZM12 22C6.47715 22 2 17.5228 2 12H0C0 18.6274 5.37258 24 12 24V22ZM2 12C2 6.47715 6.47715 2 12 2V0C5.37258 0 0 5.37258 0 12H2ZM12 2C17.5228 2 22 6.47715 22 12H24C24 5.37258 18.6274 0 12 0V2ZM8.7 9.7H8.80957V7.7H8.7V9.7ZM15.3 9.7H15.3974V7.7H15.3V9.7ZM7.80957 8.7V8.78809H9.80957V8.7H7.80957ZM8.80957 7.78809H8.7V9.78809H8.80957V7.78809ZM9.7 8.78809V8.7H7.7V8.78809H9.7ZM14.3974 8.7V8.78809H16.3974V8.7H14.3974ZM15.3974 7.78809H15.3V9.78809H15.3974V7.78809ZM16.3 8.78809V8.7H14.3V8.78809H16.3ZM12 16.4999C10.7662 16.4999 9.66909 15.8399 9.03689 14.8185L7.33633 15.8712C8.30816 17.4412 10.0274 18.4999 12 18.4999V16.4999ZM14.9631 14.8185C14.3309 15.8399 13.2338 16.4999 12 16.4999V18.4999C13.9726 18.4999 15.6918 17.4412 16.6637 15.8712L14.9631 14.8185Z" fill="#2EC4B6"/>
</svg>
