<svg width="22" height="22" viewBox="0 0 22 22" fill="none" xmlns="http://www.w3.org/2000/svg">
<path d="M11.3999 17.7964L10.9998 17.544L10.5996 17.7964L5.26764 21.1597L5.2597 21.1647L5.25189 21.1699C5.14339 21.2422 5.0647 21.2548 4.9942 21.2486L4.929 21.9958L4.99419 21.2486C4.88088 21.2387 4.79974 21.2035 4.72809 21.1452L4.26308 21.7162L4.72808 21.1452C4.62856 21.0641 4.54863 20.9623 4.48754 20.8284C4.45754 20.7621 4.43822 20.6674 4.47282 20.5099C4.47287 20.5097 4.47292 20.5094 4.47297 20.5092L5.88597 14.154L5.98071 13.7279L5.65699 13.435L0.941747 9.16951C0.829806 9.06258 0.784146 8.96733 0.765924 8.87867L0.765328 8.87583C0.739066 8.75056 0.746638 8.63682 0.787315 8.5197C0.8373 8.37576 0.902163 8.28425 0.970921 8.22125C1.00196 8.19281 1.08002 8.14027 1.26305 8.11026L7.4708 7.54067L7.92702 7.49881L8.09805 7.07379L10.5071 1.08717L10.5082 1.08449C10.5609 0.951849 10.6254 0.886874 10.6944 0.845712L10.6954 0.845065C10.8166 0.772421 10.9147 0.75 10.9998 0.75C11.0848 0.75 11.1835 0.772421 11.3059 0.845387C11.3739 0.886311 11.4384 0.951361 11.4914 1.08449L11.4924 1.08717L13.9015 7.07379L14.0725 7.49881L14.5287 7.54067L20.7365 8.11026C20.9195 8.14027 20.9976 8.19282 21.0286 8.22125C21.0974 8.28425 21.1622 8.37576 21.2122 8.5197C21.2531 8.63736 21.2609 8.75166 21.2352 8.87712C21.2163 8.96665 21.1698 9.06248 21.0578 9.16952L16.3425 13.435L16.0188 13.7279L16.1135 14.154L17.5265 20.5092C17.5266 20.5095 17.5266 20.5097 17.5267 20.5099C17.5613 20.6673 17.542 20.7621 17.512 20.8284C17.4509 20.9622 17.371 21.0641 17.2714 21.1452L17.745 21.7267L17.2714 21.1452C17.1998 21.2035 17.1186 21.2387 17.0053 21.2486L17.0705 21.9958L17.0053 21.2486C16.9348 21.2548 16.8561 21.2422 16.7476 21.1699L16.7398 21.1647L16.7319 21.1597L11.3999 17.7964Z" stroke="#FF9F1C" stroke-width="1.5"/>
</svg>
