<svg width="95" height="12" viewBox="0 0 95 12" fill="none" xmlns="http://www.w3.org/2000/svg">
<path d="M1.554 2.404C1.33933 2.404 1.15267 2.32933 0.994 2.18C0.835333 2.02133 0.756 1.83467 0.756 1.62V1.578C0.756 1.36333 0.835333 1.17667 0.994 1.018C1.15267 0.859333 1.33933 0.78 1.554 0.78H7.518C7.73267 0.78 7.91933 0.859333 8.078 1.018C8.23667 1.17667 8.316 1.36333 8.316 1.578V1.62C8.316 1.83467 8.23667 2.02133 8.078 2.18C7.91933 2.32933 7.73267 2.404 7.518 2.404H5.642C5.56733 2.404 5.53 2.446 5.53 2.53V10.202C5.53 10.4167 5.45067 10.6033 5.292 10.762C5.13333 10.9207 4.94667 11 4.732 11H4.34C4.12533 11 3.93867 10.9207 3.78 10.762C3.62133 10.6033 3.542 10.4167 3.542 10.202V2.53C3.542 2.446 3.50467 2.404 3.43 2.404H1.554ZM19.9556 5.89C19.9556 3.46333 19.0689 2.25 17.2956 2.25C15.5222 2.25 14.6356 3.46333 14.6356 5.89C14.6356 8.31667 15.5222 9.53 17.2956 9.53C19.0689 9.53 19.9556 8.31667 19.9556 5.89ZM20.6976 9.754C19.8669 10.678 18.7329 11.14 17.2956 11.14C15.8582 11.14 14.7196 10.678 13.8796 9.754C13.0489 8.83 12.6336 7.542 12.6336 5.89C12.6336 4.238 13.0489 2.95 13.8796 2.026C14.7196 1.102 15.8582 0.64 17.2956 0.64C18.7329 0.64 19.8669 1.102 20.6976 2.026C21.5376 2.95 21.9576 4.238 21.9576 5.89C21.9576 7.542 21.5376 8.83 20.6976 9.754ZM29.1168 2.376V5.414C29.1168 5.48867 29.1588 5.526 29.2428 5.526H29.9428C31.6042 5.526 32.4348 4.93333 32.4348 3.748C32.4348 2.69333 31.6648 2.166 30.1248 2.166C29.8448 2.166 29.5508 2.18933 29.2428 2.236C29.1588 2.25467 29.1168 2.30133 29.1168 2.376ZM27.9828 11C27.7682 11 27.5815 10.9207 27.4228 10.762C27.2642 10.6033 27.1848 10.4167 27.1848 10.202V1.648C27.1848 1.424 27.2595 1.22333 27.4088 1.046C27.5582 0.868666 27.7448 0.770666 27.9688 0.751999C28.7622 0.677333 29.5275 0.64 30.2648 0.64C31.6368 0.64 32.6635 0.896666 33.3448 1.41C34.0262 1.914 34.3668 2.628 34.3668 3.552C34.3668 4.21467 34.1848 4.798 33.8208 5.302C33.4662 5.806 32.9855 6.16067 32.3788 6.366C32.3695 6.366 32.3648 6.37067 32.3648 6.38C32.3648 6.39867 32.3695 6.408 32.3788 6.408C32.8268 6.688 33.2095 7.23867 33.5268 8.06L34.3668 10.258C34.4322 10.4353 34.4088 10.6033 34.2968 10.762C34.1942 10.9207 34.0495 11 33.8628 11H33.4288C33.1862 11 32.9668 10.9347 32.7708 10.804C32.5748 10.664 32.4348 10.482 32.3508 10.258L31.5668 8.102C31.3988 7.654 31.2075 7.36 30.9928 7.22C30.7782 7.08 30.4095 7.01 29.8868 7.01H29.2428C29.1588 7.01 29.1168 7.052 29.1168 7.136V10.202C29.1168 10.4167 29.0375 10.6033 28.8788 10.762C28.7295 10.9207 28.5475 11 28.3328 11H27.9828ZM40.7759 11C40.5612 11 40.3745 10.9207 40.2159 10.762C40.0572 10.6033 39.9779 10.4167 39.9779 10.202V1.578C39.9779 1.36333 40.0572 1.17667 40.2159 1.018C40.3745 0.859333 40.5612 0.78 40.7759 0.78H41.3359C41.5505 0.78 41.7372 0.859333 41.8959 1.018C42.0545 1.17667 42.1339 1.36333 42.1339 1.578V10.202C42.1339 10.4167 42.0545 10.6033 41.8959 10.762C41.7372 10.9207 41.5505 11 41.3359 11H40.7759ZM48.7078 2.404C48.4931 2.404 48.3064 2.32933 48.1478 2.18C47.9891 2.02133 47.9098 1.83467 47.9098 1.62V1.578C47.9098 1.36333 47.9891 1.17667 48.1478 1.018C48.3064 0.859333 48.4931 0.78 48.7078 0.78H54.6718C54.8864 0.78 55.0731 0.859333 55.2318 1.018C55.3904 1.17667 55.4698 1.36333 55.4698 1.578V1.62C55.4698 1.83467 55.3904 2.02133 55.2318 2.18C55.0731 2.32933 54.8864 2.404 54.6718 2.404H52.7958C52.7211 2.404 52.6838 2.446 52.6838 2.53V10.202C52.6838 10.4167 52.6044 10.6033 52.4458 10.762C52.2871 10.9207 52.1004 11 51.8858 11H51.4938C51.2791 11 51.0924 10.9207 50.9338 10.762C50.7751 10.6033 50.6958 10.4167 50.6958 10.202V2.53C50.6958 2.446 50.6584 2.404 50.5838 2.404H48.7078ZM67.1093 5.89C67.1093 3.46333 66.2227 2.25 64.4493 2.25C62.676 2.25 61.7893 3.46333 61.7893 5.89C61.7893 8.31667 62.676 9.53 64.4493 9.53C66.2227 9.53 67.1093 8.31667 67.1093 5.89ZM67.8513 9.754C67.0207 10.678 65.8867 11.14 64.4493 11.14C63.012 11.14 61.8733 10.678 61.0333 9.754C60.2027 8.83 59.7873 7.542 59.7873 5.89C59.7873 4.238 60.2027 2.95 61.0333 2.026C61.8733 1.102 63.012 0.64 64.4493 0.64C65.8867 0.64 67.0207 1.102 67.8513 2.026C68.6913 2.95 69.1113 4.238 69.1113 5.89C69.1113 7.542 68.6913 8.83 67.8513 9.754ZM76.2706 2.376V5.414C76.2706 5.48867 76.3126 5.526 76.3966 5.526H77.0966C78.7579 5.526 79.5886 4.93333 79.5886 3.748C79.5886 2.69333 78.8186 2.166 77.2786 2.166C76.9986 2.166 76.7046 2.18933 76.3966 2.236C76.3126 2.25467 76.2706 2.30133 76.2706 2.376ZM75.1366 11C74.9219 11 74.7352 10.9207 74.5766 10.762C74.4179 10.6033 74.3386 10.4167 74.3386 10.202V1.648C74.3386 1.424 74.4132 1.22333 74.5626 1.046C74.7119 0.868666 74.8986 0.770666 75.1226 0.751999C75.9159 0.677333 76.6812 0.64 77.4186 0.64C78.7906 0.64 79.8172 0.896666 80.4986 1.41C81.1799 1.914 81.5206 2.628 81.5206 3.552C81.5206 4.21467 81.3386 4.798 80.9746 5.302C80.6199 5.806 80.1392 6.16067 79.5326 6.366C79.5232 6.366 79.5186 6.37067 79.5186 6.38C79.5186 6.39867 79.5232 6.408 79.5326 6.408C79.9806 6.688 80.3632 7.23867 80.6806 8.06L81.5206 10.258C81.5859 10.4353 81.5626 10.6033 81.4506 10.762C81.3479 10.9207 81.2032 11 81.0166 11H80.5826C80.3399 11 80.1206 10.9347 79.9246 10.804C79.7286 10.664 79.5886 10.482 79.5046 10.258L78.7206 8.102C78.5526 7.654 78.3612 7.36 78.1466 7.22C77.9319 7.08 77.5632 7.01 77.0406 7.01H76.3966C76.3126 7.01 76.2706 7.052 76.2706 7.136V10.202C76.2706 10.4167 76.1912 10.6033 76.0326 10.762C75.8832 10.9207 75.7012 11 75.4866 11H75.1366ZM90.5023 2.516L89.2703 6.912C89.261 6.94 89.2657 6.968 89.2843 6.996C89.303 7.024 89.3263 7.038 89.3543 7.038H91.6783C91.7063 7.038 91.7297 7.024 91.7483 6.996C91.767 6.968 91.7717 6.94 91.7623 6.912L90.5303 2.516C90.5303 2.50667 90.5257 2.502 90.5163 2.502C90.507 2.502 90.5023 2.50667 90.5023 2.516ZM86.8763 11C86.6803 11 86.5263 10.9207 86.4143 10.762C86.3023 10.6033 86.279 10.4307 86.3443 10.244L89.2423 1.536C89.3263 1.312 89.4617 1.13 89.6483 0.99C89.8443 0.85 90.059 0.78 90.2923 0.78H90.7963C91.039 0.78 91.2537 0.85 91.4403 0.99C91.6363 1.13 91.7717 1.312 91.8463 1.536L94.7443 10.244C94.8097 10.4307 94.7863 10.6033 94.6743 10.762C94.5623 10.9207 94.4083 11 94.2123 11H93.7083C93.4843 11 93.2743 10.93 93.0783 10.79C92.8917 10.6407 92.7657 10.454 92.7003 10.23L92.2523 8.648C92.243 8.57333 92.1917 8.536 92.0983 8.536H88.9343C88.8503 8.536 88.799 8.57333 88.7803 8.648L88.3323 10.23C88.2763 10.454 88.1503 10.6407 87.9543 10.79C87.7677 10.93 87.5577 11 87.3243 11H86.8763Z" fill="#102334"/>
</svg>
